<svg id="visual" viewBox="0 0 540 960" width="540" height="960" xmlns="http://www.w3.org/2000/svg" xmlns:xlink="http://www.w3.org/1999/xlink" version="1.1"><rect x="0" y="0" width="540" height="960" fill="#f9f9fb"></rect><path d="M0 660L12.8 669.8C25.7 679.7 51.3 699.3 77 704.5C102.7 709.7 128.3 700.3 154 687C179.7 673.7 205.3 656.3 231.2 649.2C257 642 283 645 308.8 651C334.7 657 360.3 666 386 668.2C411.7 670.3 437.3 665.7 463 655.7C488.7 645.7 514.3 630.3 527.2 622.7L540 615L540 961L527.2 961C514.3 961 488.7 961 463 961C437.3 961 411.7 961 386 961C360.3 961 334.7 961 308.8 961C283 961 257 961 231.2 961C205.3 961 179.7 961 154 961C128.3 961 102.7 961 77 961C51.3 961 25.7 961 12.8 961L0 961Z" fill="#fa7268"></path><path d="M0 703L12.8 693.3C25.7 683.7 51.3 664.3 77 668.3C102.7 672.3 128.3 699.7 154 719C179.7 738.3 205.3 749.7 231.2 750.2C257 750.7 283 740.3 308.8 729.2C334.7 718 360.3 706 386 698.3C411.7 690.7 437.3 687.3 463 685.2C488.7 683 514.3 682 527.2 681.5L540 681L540 961L527.2 961C514.3 961 488.7 961 463 961C437.3 961 411.7 961 386 961C360.3 961 334.7 961 308.8 961C283 961 257 961 231.2 961C205.3 961 179.7 961 154 961C128.3 961 102.7 961 77 961C51.3 961 25.7 961 12.8 961L0 961Z" fill="#ef5f67"></path><path d="M0 720L12.8 735.2C25.7 750.3 51.3 780.7 77 794.7C102.7 808.7 128.3 806.3 154 800.2C179.7 794 205.3 784 231.2 769.2C257 754.3 283 734.7 308.8 736.2C334.7 737.7 360.3 760.3 386 760.3C411.7 760.3 437.3 737.7 463 726.2C488.7 714.7 514.3 714.3 527.2 714.2L540 714L540 961L527.2 961C514.3 961 488.7 961 463 961C437.3 961 411.7 961 386 961C360.3 961 334.7 961 308.8 961C283 961 257 961 231.2 961C205.3 961 179.7 961 154 961C128.3 961 102.7 961 77 961C51.3 961 25.7 961 12.8 961L0 961Z" fill="#e34c67"></path><path d="M0 843L12.8 845.2C25.7 847.3 51.3 851.7 77 841.2C102.7 830.7 128.3 805.3 154 803.8C179.7 802.3 205.3 824.7 231.2 826.2C257 827.7 283 808.3 308.8 808.5C334.7 808.7 360.3 828.3 386 835.5C411.7 842.7 437.3 837.3 463 831.2C488.7 825 514.3 818 527.2 814.5L540 811L540 961L527.2 961C514.3 961 488.7 961 463 961C437.3 961 411.7 961 386 961C360.3 961 334.7 961 308.8 961C283 961 257 961 231.2 961C205.3 961 179.7 961 154 961C128.3 961 102.7 961 77 961C51.3 961 25.7 961 12.8 961L0 961Z" fill="#d53867"></path><path d="M0 878L12.8 873.2C25.7 868.3 51.3 858.7 77 853.8C102.7 849 128.3 849 154 851C179.7 853 205.3 857 231.2 863.2C257 869.3 283 877.7 308.8 886.5C334.7 895.3 360.3 904.7 386 909.5C411.7 914.3 437.3 914.7 463 913.3C488.7 912 514.3 909 527.2 907.5L540 906L540 961L527.2 961C514.3 961 488.7 961 463 961C437.3 961 411.7 961 386 961C360.3 961 334.7 961 308.8 961C283 961 257 961 231.2 961C205.3 961 179.7 961 154 961C128.3 961 102.7 961 77 961C51.3 961 25.7 961 12.8 961L0 961Z" fill="#c62368"></path></svg>