<svg id="visual" viewBox="0 0 960 540" width="960" height="540" xmlns="http://www.w3.org/2000/svg" xmlns:xlink="http://www.w3.org/1999/xlink" version="1.1"><rect x="0" y="0" width="960" height="540" fill="#f9f9fb"></rect><path d="M0 371L22.8 376.5C45.7 382 91.3 393 137 395.8C182.7 398.7 228.3 393.3 274 385.8C319.7 378.3 365.3 368.7 411.2 364.7C457 360.7 503 362.3 548.8 365.8C594.7 369.3 640.3 374.7 686 376C731.7 377.3 777.3 374.7 823 369C868.7 363.3 914.3 354.7 937.2 350.3L960 346L960 541L937.2 541C914.3 541 868.7 541 823 541C777.3 541 731.7 541 686 541C640.3 541 594.7 541 548.8 541C503 541 457 541 411.2 541C365.3 541 319.7 541 274 541C228.3 541 182.7 541 137 541C91.3 541 45.7 541 22.8 541L0 541Z" fill="#fa7268"></path><path d="M0 395L22.8 389.7C45.7 384.3 91.3 373.7 137 375.8C182.7 378 228.3 393 274 403.8C319.7 414.7 365.3 421.3 411.2 421.7C457 422 503 416 548.8 409.7C594.7 403.3 640.3 396.7 686 392.3C731.7 388 777.3 386 823 384.7C868.7 383.3 914.3 382.7 937.2 382.3L960 382L960 541L937.2 541C914.3 541 868.7 541 823 541C777.3 541 731.7 541 686 541C640.3 541 594.7 541 548.8 541C503 541 457 541 411.2 541C365.3 541 319.7 541 274 541C228.3 541 182.7 541 137 541C91.3 541 45.7 541 22.8 541L0 541Z" fill="#ef5f67"></path><path d="M0 404L22.8 412.7C45.7 421.3 91.3 438.7 137 446.7C182.7 454.7 228.3 453.3 274 449.8C319.7 446.3 365.3 440.7 411.2 432.3C457 424 503 413 548.8 413.8C594.7 414.7 640.3 427.3 686 427.2C731.7 427 777.3 414 823 407.5C868.7 401 914.3 401 937.2 401L960 401L960 541L937.2 541C914.3 541 868.7 541 823 541C777.3 541 731.7 541 686 541C640.3 541 594.7 541 548.8 541C503 541 457 541 411.2 541C365.3 541 319.7 541 274 541C228.3 541 182.7 541 137 541C91.3 541 45.7 541 22.8 541L0 541Z" fill="#e34c67"></path><path d="M0 474L22.8 475.2C45.7 476.3 91.3 478.7 137 472.7C182.7 466.7 228.3 452.3 274 451.5C319.7 450.7 365.3 463.3 411.2 464.3C457 465.3 503 454.7 548.8 454.8C594.7 455 640.3 466 686 470C731.7 474 777.3 471 823 467.5C868.7 464 914.3 460 937.2 458L960 456L960 541L937.2 541C914.3 541 868.7 541 823 541C777.3 541 731.7 541 686 541C640.3 541 594.7 541 548.8 541C503 541 457 541 411.2 541C365.3 541 319.7 541 274 541C228.3 541 182.7 541 137 541C91.3 541 45.7 541 22.8 541L0 541Z" fill="#d53867"></path><path d="M0 493L22.8 490.3C45.7 487.7 91.3 482.3 137 479.7C182.7 477 228.3 477 274 478.2C319.7 479.3 365.3 481.7 411.2 485.2C457 488.7 503 493.3 548.8 498.3C594.7 503.3 640.3 508.7 686 511.3C731.7 514 777.3 514 823 513.2C868.7 512.3 914.3 510.7 937.2 509.8L960 509L960 541L937.2 541C914.3 541 868.7 541 823 541C777.3 541 731.7 541 686 541C640.3 541 594.7 541 548.8 541C503 541 457 541 411.2 541C365.3 541 319.7 541 274 541C228.3 541 182.7 541 137 541C91.3 541 45.7 541 22.8 541L0 541Z" fill="#c62368"></path></svg>