<svg id="visual" viewBox="0 0 960 540" width="960" height="540" xmlns="http://www.w3.org/2000/svg" xmlns:xlink="http://www.w3.org/1999/xlink" version="1.1"><rect x="0" y="0" width="960" height="540" fill="#45859b"></rect><path d="M0 348L26.7 367.2C53.3 386.3 106.7 424.7 160 447C213.3 469.3 266.7 475.7 320 454.2C373.3 432.7 426.7 383.3 480 384.2C533.3 385 586.7 436 640 442.5C693.3 449 746.7 411 800 397C853.3 383 906.7 393 933.3 398L960 403L960 541L933.3 541C906.7 541 853.3 541 800 541C746.7 541 693.3 541 640 541C586.7 541 533.3 541 480 541C426.7 541 373.3 541 320 541C266.7 541 213.3 541 160 541C106.7 541 53.3 541 26.7 541L0 541Z" fill="#f9f9fb" stroke-linecap="round" stroke-linejoin="miter"></path></svg>