<svg id="visual" viewBox="0 0 540 960" width="540" height="960" xmlns="http://www.w3.org/2000/svg" xmlns:xlink="http://www.w3.org/1999/xlink" version="1.1"><rect x="0" y="0" width="540" height="960" fill="#f9f9fb"></rect><path d="M0 313L15 312.8C30 312.7 60 312.3 90 303.2C120 294 150 276 180 270.3C210 264.7 240 271.3 270 279C300 286.7 330 295.3 360 298.3C390 301.3 420 298.7 450 300.5C480 302.3 510 308.7 525 311.8L540 315L540 0L525 0C510 0 480 0 450 0C420 0 390 0 360 0C330 0 300 0 270 0C240 0 210 0 180 0C150 0 120 0 90 0C60 0 30 0 15 0L0 0Z" fill="#45859b" stroke-linecap="round" stroke-linejoin="miter"></path></svg>