<?xml version="1.0" standalone="no"?>
<!DOCTYPE svg PUBLIC "-//W3C//DTD SVG 20010904//EN"
 "http://www.w3.org/TR/2001/REC-SVG-20010904/DTD/svg10.dtd">
<svg version="1.0" xmlns="http://www.w3.org/2000/svg"
 width="840.000000pt" height="840.000000pt" viewBox="0 0 840.000000 840.000000"
 preserveAspectRatio="xMidYMid meet">
<metadata>
Created by potrace 1.14, written by Peter Selinger 2001-2017
</metadata>
<g transform="translate(0.000000,840.000000) scale(0.100000,-0.100000)"
fill="#000000" stroke="none">
<path d="M3969 8396 c-2 -2 -49 -7 -104 -10 -109 -8 -274 -29 -400 -51 -44 -8
-95 -17 -114 -20 -141 -24 -486 -128 -701 -212 -107 -42 -403 -183 -495 -235
-174 -100 -501 -318 -535 -357 -3 -3 -39 -34 -80 -67 -126 -103 -149 -124
-300 -275 -145 -145 -196 -201 -286 -314 -27 -33 -53 -65 -59 -71 -5 -6 -17
-22 -25 -34 -30 -45 -85 -115 -92 -118 -5 -2 -8 -8 -8 -14 0 -6 -13 -27 -30
-48 -16 -21 -30 -43 -30 -49 0 -6 -4 -11 -10 -11 -5 0 -10 -4 -10 -9 0 -5 -22
-44 -50 -85 -27 -42 -50 -79 -50 -84 0 -5 -9 -19 -20 -32 -11 -13 -20 -29 -20
-36 0 -7 -6 -19 -13 -26 -12 -13 -167 -319 -167 -331 0 -3 -13 -34 -29 -69
-28 -63 -41 -94 -47 -113 -2 -5 -24 -66 -48 -135 -25 -69 -46 -132 -46 -141 0
-8 -5 -20 -12 -27 -7 -7 -9 -12 -5 -12 3 0 2 -12 -4 -27 -6 -16 -12 -36 -14
-46 -2 -10 -13 -52 -25 -93 -11 -42 -23 -92 -26 -112 -3 -20 -8 -40 -10 -43
-2 -3 -6 -21 -9 -40 -3 -19 -8 -45 -10 -59 -10 -49 -15 -75 -20 -110 -3 -20
-7 -45 -9 -55 -5 -24 -13 -92 -21 -165 -3 -30 -8 -73 -11 -95 -9 -70 -12 -607
-4 -670 5 -33 11 -91 14 -130 6 -72 9 -101 27 -215 13 -81 47 -252 61 -305 5
-22 11 -47 13 -55 21 -107 120 -410 185 -568 90 -218 200 -436 324 -637 47
-77 218 -320 254 -362 15 -17 38 -46 52 -64 14 -18 30 -37 35 -43 6 -6 35 -40
65 -76 65 -76 312 -325 391 -392 73 -63 129 -108 168 -138 18 -14 47 -37 64
-52 17 -16 34 -28 38 -28 5 0 22 -12 66 -50 7 -5 16 -10 22 -10 5 0 11 -3 13
-7 5 -12 126 -93 138 -93 5 0 10 -4 10 -9 0 -5 8 -11 18 -15 9 -3 31 -15 47
-26 17 -11 37 -23 45 -27 8 -3 17 -9 20 -12 5 -6 13 -10 144 -79 39 -20 73
-40 76 -43 3 -3 17 -9 33 -13 15 -3 27 -11 27 -16 0 -6 7 -10 17 -10 9 0 35
-11 58 -25 23 -13 45 -21 49 -18 3 3 6 0 6 -7 0 -7 3 -10 6 -7 4 4 19 0 33 -8
27 -16 73 -33 81 -32 3 1 19 -6 35 -15 17 -9 46 -22 65 -28 19 -7 44 -16 55
-20 28 -12 279 -93 295 -96 3 0 25 -6 50 -13 25 -7 56 -15 70 -17 14 -3 39 -9
55 -14 17 -5 55 -14 85 -19 30 -6 66 -13 80 -16 14 -3 40 -8 59 -11 18 -3 43
-8 55 -10 11 -3 41 -7 66 -10 25 -2 56 -6 70 -9 14 -2 52 -7 85 -10 33 -4 76
-9 95 -12 60 -9 612 -11 675 -3 33 5 96 11 140 15 44 4 103 11 130 16 28 5 70
12 95 15 25 3 108 19 185 35 668 140 1299 446 1818 882 135 113 378 350 467
455 25 29 54 63 65 76 11 12 31 37 45 56 14 18 33 42 44 54 10 11 39 50 64 86
26 36 55 74 64 84 10 11 18 25 18 32 0 7 4 14 8 16 14 5 141 206 135 212 -4 3
-1 6 5 6 7 0 12 5 12 10 0 6 12 29 27 53 25 40 188 356 189 367 1 3 8 21 16
40 54 119 66 150 61 150 -3 0 0 7 7 15 7 8 9 15 5 15 -4 0 -2 6 4 13 8 11 47
119 65 182 2 6 6 18 10 27 4 9 9 22 10 30 2 7 5 20 8 28 7 19 29 98 33 119 2
9 10 41 19 71 8 30 17 66 20 80 3 14 8 36 11 50 3 14 7 36 10 50 3 14 7 36 10
50 10 46 16 85 21 120 2 19 6 42 9 50 2 8 7 44 10 80 4 36 9 73 10 82 19 98
27 657 12 813 -11 110 -32 278 -41 325 -3 14 -7 42 -10 63 -31 205 -137 577
-234 819 -30 72 -40 95 -99 228 -24 53 -127 249 -179 340 -27 47 -34 58 -128
202 -51 78 -202 285 -230 314 -6 6 -27 31 -46 55 -63 77 -113 131 -250 269
-129 129 -187 183 -280 260 -23 19 -51 43 -63 53 -11 9 -23 17 -26 17 -3 0
-19 13 -36 28 -52 48 -288 212 -305 212 -5 0 -10 4 -10 8 0 5 -15 16 -32 25
-18 10 -48 26 -65 37 -72 44 -102 61 -193 107 -52 26 -96 51 -98 56 -2 4 -7 7
-12 7 -5 0 -37 13 -72 29 -35 16 -67 29 -71 29 -4 0 -18 7 -30 14 -18 12 -131
60 -147 64 -3 0 -18 6 -35 13 -30 13 -256 89 -285 97 -8 2 -74 19 -147 38 -72
20 -143 37 -157 40 -15 3 -34 7 -44 10 -9 3 -33 7 -52 10 -19 3 -46 8 -60 11
-60 12 -78 15 -130 21 -30 3 -57 7 -60 9 -3 2 -41 6 -85 10 -44 4 -93 9 -110
11 -34 6 -581 14 -586 10z m516 -500 c39 -3 93 -8 120 -12 50 -5 65 -7 140
-19 22 -3 54 -8 70 -10 37 -5 85 -14 105 -20 8 -2 29 -7 45 -10 49 -8 68 -12
115 -25 25 -7 54 -14 66 -16 29 -5 197 -57 269 -84 33 -12 65 -23 70 -24 6 -2
17 -6 25 -9 21 -9 74 -30 80 -32 97 -33 491 -230 510 -256 3 -3 15 -9 28 -13
12 -4 22 -12 22 -17 0 -5 4 -9 9 -9 15 0 150 -92 276 -187 85 -65 205 -165
256 -213 20 -19 56 -54 80 -76 60 -56 162 -165 229 -244 30 -35 60 -70 65 -76
90 -105 243 -326 332 -479 181 -313 353 -755 418 -1080 77 -383 101 -845 60
-1186 -10 -84 -21 -163 -30 -209 -3 -14 -7 -38 -10 -55 -3 -16 -7 -41 -10 -55
-3 -14 -8 -38 -10 -55 -3 -16 -8 -38 -11 -47 -3 -9 -7 -26 -9 -37 -10 -44 -20
-81 -40 -151 -9 -30 -18 -62 -20 -70 -2 -8 -4 -16 -5 -17 -2 -2 -4 -7 -5 -13
-1 -5 -4 -12 -5 -15 -3 -5 -3 -6 -15 -50 -4 -16 -10 -34 -14 -40 -3 -5 -6 -12
-6 -15 -2 -16 -29 -87 -38 -97 -5 -7 -6 -13 -3 -13 4 0 1 -10 -6 -22 -7 -13
-13 -25 -13 -28 -1 -3 -8 -18 -15 -35 -7 -16 -14 -32 -14 -35 -7 -31 -169
-353 -186 -370 -3 -3 -12 -17 -20 -32 -35 -64 -83 -143 -89 -148 -3 -3 -12
-17 -20 -33 -8 -15 -18 -27 -23 -27 -4 0 -8 -5 -8 -11 0 -11 -50 -82 -62 -87
-5 -2 -8 -10 -8 -18 0 -8 -7 -17 -15 -20 -8 -4 -15 -11 -15 -18 0 -6 -8 -19
-17 -27 -10 -9 -27 -29 -38 -44 -11 -16 -29 -39 -40 -51 -11 -13 -36 -42 -55
-66 -49 -60 -324 -335 -389 -389 -29 -24 -63 -53 -75 -63 -44 -39 -244 -185
-330 -241 -224 -144 -477 -271 -724 -360 -70 -26 -134 -49 -142 -52 -8 -3 -19
-7 -25 -8 -5 -2 -41 -12 -80 -23 -85 -26 -265 -69 -320 -78 -22 -3 -43 -8 -46
-10 -4 -2 -27 -6 -50 -9 -24 -3 -57 -8 -74 -11 -235 -41 -704 -51 -940 -19
-16 2 -53 6 -81 10 -29 3 -61 7 -72 10 -11 2 -37 6 -58 9 -53 8 -201 38 -256
52 -13 3 -33 7 -45 10 -12 2 -35 9 -50 15 -16 6 -28 10 -28 9 0 -4 -96 24
-175 51 -47 17 -92 32 -102 34 -9 2 -30 11 -47 19 -17 9 -31 14 -31 11 0 -3
-12 3 -27 12 -15 10 -27 17 -28 15 0 -4 -32 8 -90 34 -22 10 -42 18 -45 19 -5
0 -184 91 -270 137 -24 12 -50 29 -58 36 -7 6 -20 12 -28 12 -8 0 -14 4 -14
10 0 5 -11 12 -25 16 -14 3 -25 10 -25 15 0 5 -7 9 -15 9 -8 0 -15 3 -15 8 0
4 -27 23 -60 42 -33 19 -60 38 -60 43 0 4 -5 7 -11 7 -6 0 -16 6 -24 12 -7 7
-56 45 -108 83 l-94 70 61 11 c33 6 72 16 86 21 28 12 130 109 130 124 0 5 0
11 0 14 0 3 6 18 14 33 21 41 15 156 -11 207 -46 89 -115 142 -211 161 -19 4
-19 3 -25 60 -10 93 -68 176 -159 225 -60 32 -183 33 -248 3 -48 -23 -120 -84
-120 -103 0 -6 -5 -11 -12 -11 -6 0 -9 -2 -6 -6 3 -3 -2 -21 -12 -41 -11 -24
-17 -57 -16 -99 1 -41 -2 -59 -9 -54 -6 5 -44 54 -85 109 -367 495 -612 1084
-695 1671 -9 63 -18 129 -20 145 -24 163 -24 614 0 795 32 245 36 269 70 420
9 41 18 84 21 95 7 39 82 281 98 317 9 21 16 39 15 40 -2 7 48 132 66 168 7
14 13 29 13 33 1 17 114 251 124 255 4 2 6 8 2 13 -3 5 0 9 5 9 6 0 11 6 11
13 0 7 11 29 25 50 14 20 22 37 18 37 -4 0 -3 4 3 8 6 4 25 32 42 62 46 77 55
91 73 112 9 10 22 31 30 46 8 15 19 33 26 39 6 7 21 29 34 50 13 20 30 45 39
54 18 20 25 30 65 84 17 21 37 47 45 56 8 9 31 36 50 60 69 86 349 361 455
444 28 22 52 42 55 45 11 12 199 148 250 181 276 180 551 316 830 411 47 16
92 32 100 35 18 7 3 3 190 51 85 22 169 43 185 45 17 3 71 12 120 21 155 26
193 31 350 42 55 3 101 7 102 8 5 4 387 -3 448 -8z m-2913 -6241 c22 -6 27
-13 30 -46 2 -21 3 -39 2 -39 0 0 -23 23 -49 51 -31 33 -42 49 -29 46 10 -3
31 -9 46 -12z"/>
<path d="M4430 7554 c-212 -42 -374 -136 -510 -300 -45 -55 -91 -137 -130
-231 l-26 -63 -24 17 c-14 9 -27 19 -30 23 -14 16 -96 70 -107 70 -7 0 -13 4
-13 8 0 5 -17 16 -37 25 -100 43 -133 56 -133 51 0 -2 -8 0 -19 5 -10 6 -31
13 -47 16 -16 2 -40 8 -54 11 -40 10 -251 13 -300 4 -134 -24 -185 -42 -300
-102 -52 -28 -97 -53 -100 -57 -3 -3 -27 -24 -55 -46 -66 -54 -140 -129 -162
-165 -9 -17 -21 -30 -25 -30 -4 0 -8 -4 -8 -10 0 -5 -15 -33 -33 -62 -18 -29
-38 -64 -44 -78 -78 -175 -98 -272 -98 -478 0 -129 -1 -133 -20 -127 -207 67
-440 53 -618 -37 -100 -50 -177 -106 -252 -184 -81 -84 -83 -86 -115 -139 -13
-22 -26 -42 -29 -45 -13 -11 -72 -147 -68 -154 1 -1 -3 -9 -9 -17 -10 -12 -22
-53 -26 -86 -1 -5 -8 -28 -16 -53 -20 -65 -24 -296 -6 -395 39 -217 131 -394
283 -545 47 -47 108 -119 135 -160 55 -84 217 -250 244 -250 4 0 13 -5 20 -12
7 -7 37 -26 67 -43 l56 -30 3 -115 c5 -129 27 -229 76 -336 55 -122 147 -242
244 -319 21 -16 62 -66 91 -110 29 -44 62 -90 73 -102 l22 -22 -55 -11 c-83
-17 -186 -73 -249 -135 -31 -31 -56 -60 -56 -64 0 -5 -6 -16 -13 -23 -19 -19
-51 -92 -64 -148 -10 -38 -11 -157 -3 -204 15 -78 73 -187 130 -242 61 -61 77
-74 87 -74 15 -1 48 -35 59 -60 6 -14 17 -40 25 -57 8 -18 17 -33 21 -33 5 0
8 -6 8 -12 0 -26 160 -173 190 -176 3 0 19 -6 35 -12 199 -76 405 -37 549 105
194 191 192 493 -4 684 -40 39 -62 55 -100 74 -20 10 -77 101 -79 128 -1 3 34
3 77 1 45 -2 116 3 171 12 52 9 95 15 96 14 2 -2 24 -34 51 -73 26 -38 80
-101 120 -140 40 -38 96 -106 125 -150 56 -86 163 -197 235 -242 75 -48 182
-96 242 -108 20 -5 44 -10 52 -13 40 -11 257 -9 292 4 21 7 38 11 38 9 0 -7
105 32 160 60 83 42 173 109 230 173 55 61 120 154 120 171 0 6 4 11 10 11 5
0 9 3 8 8 -1 4 7 26 17 48 l19 41 41 -56 c51 -69 125 -144 190 -193 28 -21 55
-42 62 -48 7 -5 17 -10 22 -10 5 0 16 -6 23 -12 13 -13 78 -46 88 -45 3 0 16
-6 30 -13 14 -8 27 -15 30 -15 3 -1 29 -9 59 -18 85 -26 136 -32 276 -31 152
2 239 22 370 83 163 76 290 184 392 331 30 44 105 177 102 182 -1 2 5 19 13
38 19 45 41 131 56 215 9 55 9 269 -1 334 -5 29 -15 73 -22 97 -7 24 -10 42
-6 40 37 -24 250 -30 341 -11 219 46 384 153 527 340 31 40 106 175 97 175 -3
0 0 10 8 23 56 89 84 366 52 517 -8 36 -16 74 -18 85 -13 62 -77 199 -130 275
-47 69 -94 120 -158 175 -20 17 -52 57 -71 89 -38 63 -104 144 -151 186 -53
47 -57 52 -47 64 16 19 71 208 78 271 14 105 8 304 -10 383 -51 218 -141 379
-293 527 -40 39 -95 105 -123 147 -48 72 -203 238 -221 238 -5 0 -15 7 -23 15
-22 22 -147 93 -177 100 -3 1 -18 7 -35 14 -102 42 -180 55 -330 55 -170 -1
-255 -18 -382 -78 l-72 -34 -17 26 c-10 15 -54 63 -98 107 -45 44 -103 114
-128 156 -26 42 -80 108 -120 148 -99 97 -103 101 -116 101 -7 0 -12 4 -12 8
0 15 -140 79 -220 102 -73 21 -263 35 -320 24z"/>
</g>
</svg>
